<svg xmlns="http://www.w3.org/2000/svg"><symbol id="facebook" viewBox="0 0 96.12 96.12"><path d="M72.089.02L59.624 0C45.62 0 36.57 9.285 36.57 23.656v10.907H24.037a1.96 1.96 0 0 0-1.96 1.961v15.803a1.96 1.96 0 0 0 1.96 1.96H36.57v39.876a1.96 1.96 0 0 0 1.96 1.96h16.352a1.96 1.96 0 0 0 1.96-1.96V54.287h14.654a1.96 1.96 0 0 0 1.96-1.96l.006-15.803a1.963 1.963 0 0 0-1.961-1.961H56.842v-9.246c0-4.444 1.059-6.7 6.848-6.7l8.397-.003a1.96 1.96 0 0 0 1.959-1.96V1.98A1.96 1.96 0 0 0 72.089.02z"/></symbol><symbol id="logo-suntour" viewBox="0 0 179 44"><path fill="#fff" d="M31.697 31.082c0 1.966-.39 3.716-1.167 5.251a11.134 11.134 0 0 1-3.225 3.87c-1.372 1.045-3.02 1.843-4.945 2.396-1.925.553-4.014.83-6.266.83-2.99 0-5.804-.42-8.446-1.26-2.642-.836-5.19-2.26-7.648-4.269l3.932-5.098a23.633 23.633 0 0 0 5.866 3.164c2.067.758 4.146 1.137 6.234 1.137 2.785 0 4.863-.562 6.236-1.687 1.372-1.124 2.058-2.544 2.058-4.263 0-1.184-.277-2.145-.83-2.881-.552-.736-1.3-1.35-2.241-1.84-.942-.49-2.017-.878-3.225-1.164a298.722 298.722 0 0 1-3.778-.921 36.372 36.372 0 0 1-4.76-1.41c-1.536-.573-2.887-1.319-4.055-2.24a10.728 10.728 0 0 1-2.826-3.371c-.717-1.329-1.075-2.955-1.075-4.875 0-1.8.328-3.457.983-4.969a11.192 11.192 0 0 1 2.826-3.925C6.573 2.453 8.047 1.585 9.767.952 11.487.318 13.411 0 15.541 0c2.539 0 5.047.254 7.524.76 2.478.508 4.843 1.471 7.096 2.89l-3.133 5.748c-1.884-1.145-3.758-1.944-5.62-2.395a23.38 23.38 0 0 0-5.499-.676c-.983 0-1.915.124-2.795.369a7.208 7.208 0 0 0-2.334 1.106 5.535 5.535 0 0 0-1.628 1.873c-.41.759-.614 1.65-.614 2.672 0 1.024.266 1.884.799 2.581.532.697 1.238 1.28 2.119 1.75.88.472 1.883.86 3.01 1.167 1.126.307 2.303.584 3.532.83 2.006.452 3.849.983 5.528 1.597 1.678.615 3.122 1.403 4.33 2.365a10.261 10.261 0 0 1 2.826 3.471c.676 1.352 1.015 3.008 1.015 4.974zm47.693-15.91c-1.572-1.925-3.95-2.887-7.134-2.887-.531 0-1.112.032-1.745.093-.633.063-1.347.219-2.143.465-.797.25-1.694.6-2.694 1.055-1 .455-2.113 1.055-3.338 1.799l-.614-3.043h-5.897v21.262c-3.163 2.206-5.874 3.309-8.135 3.309-1.316 0-2.448-.41-3.395-1.23-.946-.818-1.42-2.25-1.42-4.3V12.654h-6.511v19.595c0 3.4.839 6.113 2.519 8.139 1.678 2.027 4.177 3.04 7.494 3.04 1.023 0 2.262-.194 3.716-.582 1.454-.39 3.369-1.3 5.744-2.734l.609 2.949h5.902V21.667c1.552-.976 3.022-1.73 4.41-2.26 1.393-.53 2.642-.796 3.748-.796 1.35 0 2.477.398 3.378 1.194.9.797 1.352 2.239 1.352 4.32V43.06h6.51V23.156c.001-3.397-.784-6.059-2.355-7.983zM93.922 3.44v39.62h-2.949V3.44H77.705V.737h29.362V3.44H93.922zm34.77 28.994c0 3.44-1.089 6.132-3.265 8.077-2.177 1.945-5.074 2.917-8.686 2.917-1.767 0-3.378-.256-4.835-.768-1.458-.511-2.711-1.248-3.757-2.21a9.996 9.996 0 0 1-2.433-3.44c-.575-1.33-.862-2.836-.862-4.515V23.28c0-1.637.317-3.123.954-4.454a10.04 10.04 0 0 1 2.586-3.378c1.089-.922 2.352-1.637 3.788-2.15 1.437-.511 2.976-.768 4.621-.768 1.682 0 3.253.257 4.713.768 1.458.513 2.721 1.229 3.787 2.15a9.542 9.542 0 0 1 2.494 3.378c.595 1.331.894 2.817.894 4.454v9.153h.001zm-2.765-8.333c0-1.642-.276-3.037-.829-4.187-.552-1.148-1.259-2.083-2.119-2.802a8.25 8.25 0 0 0-2.921-1.57 11.106 11.106 0 0 0-3.225-.493c-1.105 0-2.211.165-3.317.492a8.23 8.23 0 0 0-2.949 1.571c-.86.719-1.566 1.653-2.118 2.802-.553 1.15-.829 2.546-.829 4.187v7.696c0 1.683.255 3.1.768 4.248.512 1.15 1.186 2.084 2.026 2.802a7.874 7.874 0 0 0 2.919 1.57 12.17 12.17 0 0 0 3.5.493c1.23 0 2.386-.173 3.471-.522a8.067 8.067 0 0 0 2.89-1.633c.839-.739 1.505-1.682 1.997-2.832.49-1.15.736-2.526.736-4.126v-7.696zM155.71 43.06l-.482-4.177a64.984 64.984 0 0 1-3.716 2.15 36.533 36.533 0 0 1-2.948 1.413c-.882.368-1.69.623-2.427.767a11.29 11.29 0 0 1-2.15.215c-3.113 0-5.508-.849-7.187-2.548-1.679-1.7-2.519-4.29-2.519-7.772v-20.21h2.764V32.39c0 2.984.635 5.12 1.905 6.407 1.269 1.287 3.029 1.93 5.282 1.93 1.474 0 3.173-.439 5.098-1.318 1.925-.878 3.89-2.033 5.897-3.463V12.899h2.764V43.06h-2.281zM179 15.725c-2.744.287-5.017.882-6.819 1.781-1.802.902-3.214 1.7-4.238 2.396V43.06h-2.764V12.9h2.334l.43 4.485h.061a20.712 20.712 0 0 1 2.181-1.628 23.229 23.229 0 0 1 2.733-1.536 18.23 18.23 0 0 1 3.041-1.137 16.88 16.88 0 0 1 3.04-.553v3.195H179z"/></symbol><symbol id="google-plus" viewBox="0 0 96.83 96.83"><path d="M62.617 0H39.525c-10.29 0-17.413 2.256-23.824 7.552-5.042 4.35-8.051 10.672-8.051 16.912 0 9.614 7.33 19.831 20.913 19.831 1.306 0 2.752-.134 4.028-.253l-.188.457c-.546 1.308-1.063 2.542-1.063 4.468 0 3.75 1.809 6.063 3.558 8.298l.22.283-.391.027c-5.609.384-16.049 1.1-23.675 5.787-9.007 5.355-9.707 13.145-9.707 15.404 0 8.988 8.376 18.06 27.09 18.06 21.76 0 33.146-12.005 33.146-23.863.002-8.771-5.141-13.101-10.6-17.698l-4.605-3.582c-1.423-1.179-3.195-2.646-3.195-5.364 0-2.672 1.772-4.436 3.336-5.992l.163-.165c4.973-3.917 10.609-8.358 10.609-17.964 0-9.658-6.035-14.649-8.937-17.048h7.663a.488.488 0 0 0 .266-.077l6.601-4.15A.5.5 0 0 0 62.617 0zM34.614 91.535c-13.264 0-22.176-6.195-22.176-15.416 0-6.021 3.645-10.396 10.824-12.997 5.749-1.935 13.17-2.031 13.244-2.031 1.257 0 1.889 0 2.893.126 9.281 6.605 13.743 10.073 13.743 16.678-.001 8.414-7.101 13.64-18.528 13.64zm-.125-50.779c-11.132 0-15.752-14.633-15.752-22.468 0-3.984.906-7.042 2.77-9.351 2.023-2.531 5.487-4.166 8.825-4.166 10.221 0 15.873 13.738 15.873 23.233 0 1.498 0 6.055-3.148 9.22-2.117 2.113-5.56 3.532-8.568 3.532zm60.493 4.467H82.814V33.098a.5.5 0 0 0-.5-.5H77.08a.5.5 0 0 0-.5.5v12.125H64.473a.5.5 0 0 0-.5.5v5.304a.5.5 0 0 0 .5.5H76.58V63.73a.5.5 0 0 0 .5.5h5.234c.275 0 .5-.225.5-.5V51.525h12.168a.5.5 0 0 0 .5-.5v-5.302c0-.277-.223-.5-.5-.5z"/></symbol><symbol id="instagram" viewBox="0 0 438.54 438.54"><path d="M421.981 16.562C410.941 5.519 397.711 0 382.298 0H56.248C40.83 0 27.604 5.521 16.561 16.562 5.52 27.6.001 40.828.001 56.243V382.29c0 15.413 5.518 28.644 16.56 39.683 11.043 11.04 24.272 16.563 39.687 16.563h326.046c15.41 0 28.644-5.523 39.684-16.563 11.043-11.039 16.557-24.27 16.557-39.683V56.243c-.001-15.418-5.514-28.639-16.554-39.681zM157.462 158.025c17.224-16.652 37.924-24.982 62.097-24.982 24.36 0 45.153 8.33 62.381 24.982 17.228 16.655 25.837 36.785 25.837 60.386 0 23.598-8.609 43.729-25.837 60.379-17.228 16.659-38.014 24.988-62.381 24.988-24.172 0-44.87-8.336-62.097-24.988-17.228-16.652-25.841-36.781-25.841-60.379 0-23.601 8.613-43.73 25.841-60.386zm231.403 212.564c0 4.945-1.718 9.083-5.141 12.416-3.433 3.33-7.519 4.996-12.282 4.996h-305.2c-4.948 0-9.091-1.666-12.419-4.996-3.333-3.326-4.998-7.471-4.998-12.416V185.575H89.08c-3.805 11.993-5.708 24.462-5.708 37.402 0 36.553 13.322 67.715 39.969 93.511 26.65 25.786 58.721 38.685 96.217 38.685 24.744 0 47.583-5.903 68.527-17.703 20.937-11.807 37.486-27.839 49.676-48.112 12.183-20.272 18.274-42.4 18.274-66.38 0-12.94-1.91-25.406-5.715-37.402h38.547V370.59h-.002zm0-254.963c0 5.52-1.903 10.184-5.716 13.99-3.805 3.809-8.466 5.711-13.989 5.711h-49.676c-5.517 0-10.185-1.903-13.99-5.711-3.806-3.806-5.708-8.47-5.708-13.99V68.522c0-5.33 1.902-9.945 5.708-13.848 3.806-3.901 8.474-5.854 13.99-5.854h49.676c5.523 0 10.185 1.952 13.989 5.854 3.812 3.903 5.716 8.518 5.716 13.848v47.104z"/></symbol><symbol id="rate-star" viewBox="0 0 306 306"><path d="M153 230.78l94.35 68.85-35.7-112.2 94.35-66.3H191.25L153 6.38l-38.25 114.75H0l94.35 66.3-35.7 112.2z"/></symbol><symbol id="rate-star-grey" viewBox="0 0 43.24 43.24"><path d="M22.69 1.785l4.555 14.143 14.872-.016c.619 0 1.127.492 1.127 1.111 0 .365-.19.698-.46.905l-12.047 8.714 4.619 14.142a1.104 1.104 0 0 1-.714 1.397 1.139 1.139 0 0 1-1.079-.206L21.626 33.26 9.611 42.022c-.508.365-1.206.254-1.555-.238a1.093 1.093 0 0 1-.159-1h-.016l4.635-14.142L.469 17.927a1.105 1.105 0 0 1-.254-1.556c.238-.333.603-.492.984-.46l14.793.016 4.571-14.143c.19-.587.809-.905 1.397-.73.365.128.618.397.73.731zm2.682 15.602L21.626 5.753l-3.762 11.635a1.11 1.11 0 0 1-1.063.778l-12.222-.017 9.904 7.159c.381.286.556.778.397 1.254l-3.793 11.619 9.857-7.19a1.142 1.142 0 0 1 1.333-.016l9.872 7.206-3.778-11.571c-.175-.46-.032-1 .381-1.302l9.92-7.159-12.19.016a1.104 1.104 0 0 1-1.11-.778z"/></symbol></svg>